<svg width="27" height="27" viewBox="0 0 27 27" fill="none" xmlns="http://www.w3.org/2000/svg">
<g clip-path="url(#clip0)">
<path d="M24.4914 17.155C22.8987 17.155 21.3349 16.9058 19.853 16.4159C19.1269 16.1681 18.2342 16.3954 17.791 16.8507L14.8661 19.0597C11.4739 17.2482 9.38446 15.1586 7.59847 11.7906L9.74154 8.94065C10.2983 8.38439 10.498 7.57181 10.2588 6.80939C9.76694 5.3191 9.5171 3.75542 9.5171 2.16145C9.51717 1.00995 8.58075 0.0731506 7.42979 0.0731506H2.65251C1.50154 0.0731506 0.565125 1.00995 0.565125 2.16138C0.565125 15.3598 11.2983 26.0972 24.4914 26.0972C25.6423 26.0972 26.5787 25.1604 26.5787 24.009V19.2431C26.5787 18.0918 25.6422 17.155 24.4914 17.155Z" fill="white"/>
</g>
<defs>
<clipPath id="clip0">
<rect width="26.0135" height="26.0241" fill="white" transform="translate(0.565125 0.0731506)"/>
</clipPath>
</defs>
</svg>
