<svg width="50" height="50" viewBox="0 0 50 50" fill="none" xmlns="http://www.w3.org/2000/svg">
<path d="M41.1185 40.512C40.7141 40.512 40.3861 40.8399 40.3861 41.2444V48.1306C40.3861 48.3535 40.2047 48.535 39.9817 48.535H36.0445V34.1114C36.0445 33.7069 35.7166 33.379 35.3121 33.379C34.9076 33.379 34.5797 33.7069 34.5797 34.1114V48.5351H26.6515L28.9506 46.0058C29.2017 45.7294 29.3202 45.3357 29.2674 44.9523C29.2664 44.9449 29.2652 44.9375 29.264 44.9301L27.0742 31.9938L27.6642 31.1058C27.9903 31.3374 28.2416 31.5604 28.7128 31.5604C29.1921 31.5604 29.6402 31.2922 29.8607 30.8506V30.8505L32.1703 26.2216L37.4316 28.2592C37.622 28.3408 40.3859 29.5855 40.3859 32.8723V37.8264C40.3858 38.2308 40.7138 38.5588 41.1184 38.5588C41.5228 38.5588 41.8508 38.2309 41.8508 37.8264V32.8723C41.8508 28.5418 38.1429 26.9677 37.9851 26.9027C37.9805 26.9008 37.9758 26.8989 37.9711 26.8972L29.2144 23.506V21.4522C30.6053 20.3706 31.5696 18.7672 31.8117 16.9379C32.5052 16.8891 33.1486 16.6301 33.6741 16.1782C34.3603 15.5881 34.7541 14.7292 34.7541 13.8222C34.7541 13.0694 34.4825 12.3507 33.9985 11.7906V9.07744C33.9984 4.07217 29.9264 0 24.9211 0C19.9158 0 15.8437 4.07217 15.8437 9.07744V11.8617C15.3546 12.4161 15.0886 13.0985 15.0886 13.8221C15.0886 14.7294 15.4821 15.5882 16.1685 16.1784C16.6936 16.6301 17.3367 16.8888 18.03 16.9377C18.274 18.8013 19.2665 20.4645 20.7758 21.5606V23.506L12.0286 26.8971C12.024 26.8988 12.0194 26.9007 12.0148 26.9025C11.8569 26.9675 8.14911 28.5416 8.14911 32.8721V48.1304C8.14911 49.1611 8.98768 49.9997 10.0184 49.9997H16.9967C17.4012 49.9997 17.7291 49.6718 17.7291 49.2673C17.7291 48.8628 17.4012 48.5349 16.9967 48.5349H15.4208V34.1114C15.4208 33.7069 15.0929 33.379 14.6884 33.379C14.2839 33.379 13.9559 33.7069 13.9559 34.1114V48.5351H10.0185C9.79559 48.5351 9.61415 48.3536 9.61415 48.1307V32.8722C9.61415 29.5744 12.3967 28.3325 12.5676 28.2595L17.8248 26.2214L20.1346 30.8505C20.3556 31.2932 20.8043 31.5604 21.2826 31.5604C21.7515 31.5604 22.0003 31.3408 22.3312 31.1058L22.9212 31.9938L20.7316 44.9302C20.7304 44.9375 20.7293 44.9448 20.7282 44.9522C20.6753 45.3354 20.7937 45.7293 21.045 46.0059L23.3441 48.5352H20.4149C20.0104 48.5352 19.6825 48.8631 19.6825 49.2676C19.6825 49.6721 20.0104 50 20.4149 50H39.9818C41.0126 50 41.8512 49.1613 41.8512 48.1307V41.2445C41.851 40.8399 41.523 40.512 41.1185 40.512ZM30.7983 25.6903L28.6451 30.0058C28.5916 29.9678 27.4505 29.157 26.0556 28.1665C26.6608 27.4193 25.9527 28.2934 28.7152 24.8836L30.7983 25.6903ZM26.469 30.2571L25.9106 31.0977H24.0842L23.5258 30.2571L24.9974 29.2119L26.469 30.2571ZM22.2405 23.7423V22.3716C23.1304 22.7303 24.0813 22.8966 25.01 22.8966C25.9703 22.8966 26.912 22.6919 27.7495 22.3257V23.7482L24.9974 27.1452L22.2405 23.7423ZM33.2892 13.8222C33.2891 14.302 33.0812 14.756 32.7189 15.0676C32.4794 15.2736 32.19 15.4054 31.8731 15.4569V12.1877C32.7149 12.3244 33.2892 13.0227 33.2892 13.8222ZM17.9694 15.4569C17.1181 15.3188 16.5534 14.6148 16.5534 13.8221C16.5534 13.0391 17.2025 12.4018 17.9694 12.2245V15.4569ZM18.0088 10.732C17.7755 10.7588 17.5081 10.822 17.3088 10.8897V9.07744C17.3088 4.87988 20.7236 1.46494 24.9212 1.46494C29.1187 1.46494 32.5336 4.87988 32.5336 9.07744V10.8395C32.3207 10.7747 32.0999 10.7319 31.8732 10.7118C31.8732 10.0051 31.8794 10.1414 29.5674 7.65576C29.1422 7.19893 28.4389 7.10322 27.9036 7.45293C25.3518 9.11982 22.2391 9.95723 19.367 9.75098C18.737 9.70381 18.1632 10.1188 18.0088 10.732ZM19.4344 16.0336V11.4641V11.2233C22.596 11.4085 25.9107 10.4692 28.5886 8.7543C29.6489 9.89277 30.2231 10.4899 30.4083 10.7171C30.4083 11.2917 30.4083 15.3758 30.4083 16.0335C30.4083 19.0068 27.9839 21.4315 25.0101 21.4315C21.6709 21.4316 19.4344 18.8412 19.4344 16.0336ZM21.3499 30.0058L19.1967 25.6903L21.2761 24.885L23.9363 28.1687C22.5835 29.1293 21.4726 29.9186 21.3499 30.0058ZM22.1902 45.0881L24.3102 32.5624H25.6844L27.8044 45.0881L24.9974 48.1763L22.1902 45.0881Z" fill="#4580C7"/>
</svg>
