<svg width="50" height="50" viewBox="0 0 50 50" fill="none" xmlns="http://www.w3.org/2000/svg">
<path d="M25 44.7984C32.0942 44.7984 37.8657 39.027 37.8657 31.9328C37.8657 24.8387 32.0942 19.0672 25 19.0672C17.9059 19.0672 12.1344 24.8387 12.1344 31.9328C12.1344 39.027 17.9059 44.7984 25 44.7984ZM25 20.2391C27.3128 20.2391 29.5737 20.9249 31.4967 22.2098C33.4198 23.4948 34.9186 25.3211 35.8036 27.4578C36.6887 29.5946 36.9203 31.9458 36.4691 34.2142C36.0179 36.4825 34.9042 38.5662 33.2688 40.2016C31.6334 41.837 29.5497 42.9507 27.2814 43.4019C25.013 43.8531 22.6618 43.6215 20.525 42.7364C18.3883 41.8514 16.562 40.3525 15.277 38.4295C13.9921 36.5065 13.3063 34.2456 13.3063 31.9328C13.3098 28.8325 14.5429 25.8602 16.7352 23.668C18.9274 21.4757 21.8997 20.2426 25 20.2391V20.2391Z" fill="white"/>
<path d="M25.0144 40.7555C26.8353 40.7531 28.611 40.1884 30.0989 39.1387C31.5868 38.089 32.7142 36.6055 33.3271 34.8908C33.3577 34.805 33.3677 34.7132 33.3565 34.6228C33.3454 34.5323 33.3132 34.4457 33.2627 34.3699C33.2122 34.2941 33.1447 34.231 33.0656 34.1858C32.9865 34.1407 32.8979 34.1145 32.8069 34.1096C32.2688 34.0798 31.7629 33.8435 31.3946 33.45C31.0263 33.0564 30.824 32.536 30.8298 31.997C30.8356 31.4581 31.0492 30.9422 31.4259 30.5567C31.8026 30.1713 32.3136 29.946 32.8522 29.9278C32.9433 29.9249 33.0325 29.9007 33.1126 29.8572C33.1927 29.8138 33.2615 29.7522 33.3137 29.6775C33.3658 29.6028 33.3998 29.5169 33.4129 29.4267C33.4261 29.3365 33.418 29.2445 33.3894 29.158C32.8782 27.6156 31.9511 26.2443 30.7101 25.1953C29.4692 24.1464 27.9627 23.4605 26.3567 23.2133C24.7507 22.9662 23.1076 23.1673 21.6087 23.7946C20.1098 24.4219 18.8132 25.4509 17.862 26.7683C16.9107 28.0856 16.3417 29.6401 16.2178 31.2602C16.0938 32.8804 16.4197 34.5033 17.1595 35.95C17.8993 37.3967 19.0243 38.6111 20.4104 39.459C21.7964 40.307 23.3898 40.7558 25.0146 40.7558L25.0144 40.7555ZM25.0144 24.282C26.5043 24.2802 27.9623 24.7142 29.2086 25.5307C30.455 26.3471 31.4352 27.5103 32.0287 28.877C31.3515 29.0701 30.7547 29.4768 30.3274 30.0366C29.9001 30.5964 29.6652 31.2793 29.6576 31.9835C29.6499 32.6877 29.8701 33.3755 30.2851 33.9445C30.7002 34.5134 31.288 34.9329 31.9609 35.1406C31.3855 36.3867 30.4855 37.4551 29.3552 38.2337C28.2249 39.0124 26.906 39.4727 25.5367 39.5663C24.1673 39.6599 22.798 39.3834 21.5723 38.7659C20.3465 38.1483 19.3095 37.2124 18.5698 36.0562C17.8301 34.9 17.4151 33.5662 17.3683 32.1944C17.3214 30.8227 17.6444 29.4636 18.3034 28.2596C18.9624 27.0556 19.9331 26.0511 21.1138 25.3513C22.2946 24.6515 23.6418 24.2822 25.0144 24.2821V24.282Z" fill="white"/>
<path d="M10.2539 49.6094H39.6484C40.5808 49.6094 41.4751 49.239 42.1344 48.5797C42.7937 47.9204 43.1641 47.0262 43.1641 46.0938V4.10156C43.1641 3.16916 42.7937 2.27495 42.1344 1.61564C41.4751 0.956333 40.5808 0.585938 39.6484 0.585938H10.2539C9.3215 0.585938 8.42729 0.956333 7.76798 1.61564C7.10868 2.27495 6.73828 3.16916 6.73828 4.10156V46.0938C6.73828 47.0262 7.10868 47.9204 7.76798 48.5797C8.42729 49.239 9.3215 49.6094 10.2539 49.6094ZM7.91016 4.10156C7.91016 2.80928 8.99902 1.75781 10.2914 1.75781H39.7086C41.001 1.75781 42.0898 2.80928 42.0898 4.10156V10.8398H7.91016V4.10156ZM7.91016 12.0117H42.0898V46.0938C42.0898 47.386 41.001 48.4375 39.7086 48.4375H10.2914C8.99902 48.4375 7.91016 47.386 7.91016 46.0938V12.0117Z" fill="white"/>
<path d="M20.4102 4.29688H11.3281C11.1727 4.29688 11.0237 4.35861 10.9138 4.46849C10.8039 4.57838 10.7422 4.72741 10.7422 4.88281V8.30078C10.7422 8.45618 10.8039 8.60522 10.9138 8.7151C11.0237 8.82499 11.1727 8.88672 11.3281 8.88672H20.4102C20.5656 8.88672 20.7146 8.82499 20.8245 8.7151C20.9344 8.60522 20.9961 8.45618 20.9961 8.30078V4.88281C20.9961 4.72741 20.9344 4.57838 20.8245 4.46849C20.7146 4.35861 20.5656 4.29688 20.4102 4.29688V4.29688ZM19.8242 7.8125H11.9141V5.46875H19.8242V7.8125Z" fill="white"/>
<path d="M27.3702 4.50078C26.9486 4.50078 26.5364 4.6258 26.1859 4.86004C25.8353 5.09428 25.5621 5.42721 25.4007 5.81673C25.2394 6.20626 25.1972 6.63488 25.2794 7.0484C25.3617 7.46191 25.5647 7.84175 25.8628 8.13988C26.161 8.43801 26.5408 8.64104 26.9543 8.72329C27.3678 8.80554 27.7965 8.76333 28.186 8.60198C28.5755 8.44064 28.9084 8.16741 29.1427 7.81684C29.3769 7.46628 29.5019 7.05413 29.5019 6.63251C29.5013 6.06733 29.2765 5.52548 28.8769 5.12583C28.4772 4.72619 27.9354 4.5014 27.3702 4.50078ZM27.3702 7.59228C27.1804 7.5923 26.9948 7.53602 26.8369 7.43055C26.679 7.32509 26.556 7.17518 26.4833 6.99979C26.4107 6.82439 26.3916 6.63139 26.4287 6.44518C26.4657 6.25898 26.5571 6.08794 26.6914 5.95369C26.8256 5.81945 26.9967 5.72803 27.1829 5.69099C27.3691 5.65396 27.5621 5.67298 27.7375 5.74564C27.9129 5.8183 28.0628 5.94134 28.1682 6.09921C28.2737 6.25707 28.33 6.44266 28.33 6.63251C28.3297 6.88696 28.2284 7.1309 28.0485 7.31083C27.8686 7.49075 27.6247 7.59197 27.3702 7.59228V7.59228Z" fill="white"/>
<path d="M32.2495 4.50078C31.8279 4.50076 31.4158 4.62577 31.0652 4.85999C30.7146 5.09422 30.4414 5.42714 30.28 5.81667C30.1186 6.20619 30.0764 6.63481 30.1587 7.04834C30.2409 7.46186 30.4439 7.84171 30.742 8.13985C31.0402 8.43799 31.42 8.64102 31.8335 8.72328C32.247 8.80555 32.6757 8.76334 33.0652 8.60199C33.4547 8.44065 33.7877 8.16742 34.0219 7.81686C34.2562 7.46629 34.3812 7.05414 34.3812 6.63252C34.3806 6.06735 34.1558 5.52551 33.7562 5.12587C33.3565 4.72623 32.8147 4.50142 32.2495 4.50078V4.50078ZM32.2495 7.59228C32.0597 7.5923 31.8741 7.53602 31.7162 7.43055C31.5584 7.32509 31.4353 7.17518 31.3627 6.99979C31.29 6.82439 31.271 6.63139 31.308 6.44518C31.3451 6.25898 31.4365 6.08794 31.5707 5.95369C31.705 5.81945 31.876 5.72803 32.0622 5.69099C32.2484 5.65396 32.4414 5.67298 32.6168 5.74564C32.7922 5.8183 32.9421 5.94134 33.0476 6.09921C33.153 6.25707 33.2093 6.44266 33.2093 6.63252C33.209 6.88697 33.1078 7.13093 32.9279 7.31086C32.748 7.49079 32.504 7.592 32.2495 7.59228V7.59228Z" fill="white"/>
<path d="M37.1289 4.50078C36.7073 4.50076 36.2951 4.62577 35.9446 4.85999C35.594 5.09422 35.3207 5.42714 35.1594 5.81667C34.998 6.20619 34.9558 6.63481 35.038 7.04834C35.1203 7.46186 35.3233 7.84171 35.6214 8.13985C35.9195 8.43799 36.2994 8.64102 36.7129 8.72328C37.1264 8.80555 37.555 8.76334 37.9446 8.60199C38.3341 8.44065 38.667 8.16742 38.9013 7.81686C39.1355 7.46629 39.2606 7.05414 39.2606 6.63252C39.2599 6.06735 39.0352 5.52551 38.6355 5.12587C38.2359 4.72623 37.6941 4.50142 37.1289 4.50078V4.50078ZM37.1289 7.59228C36.9391 7.5923 36.7535 7.53602 36.5956 7.43055C36.4377 7.32509 36.3147 7.17518 36.242 6.99979C36.1694 6.82439 36.1504 6.63139 36.1874 6.44518C36.2244 6.25898 36.3158 6.08794 36.4501 5.95369C36.5843 5.81945 36.7554 5.72803 36.9416 5.69099C37.1278 5.65396 37.3208 5.67298 37.4962 5.74564C37.6716 5.8183 37.8215 5.94134 37.9269 6.09921C38.0324 6.25707 38.0887 6.44266 38.0887 6.63252C38.0884 6.88697 37.9872 7.13093 37.8073 7.31086C37.6273 7.49079 37.3834 7.592 37.1289 7.59228V7.59228Z" fill="white"/>
<path d="M10.4492 16.3491C10.6046 16.3491 10.7537 16.2874 10.8635 16.1775C10.9734 16.0676 11.0352 15.9186 11.0352 15.7632V15.4995C11.0352 15.3441 10.9734 15.1951 10.8635 15.0852C10.7537 14.9753 10.6046 14.9136 10.4492 14.9136C10.2938 14.9136 10.1448 14.9753 10.0349 15.0852C9.92501 15.1951 9.86328 15.3441 9.86328 15.4995V15.7632C9.86328 15.9186 9.92501 16.0676 10.0349 16.1775C10.1448 16.2874 10.2938 16.3491 10.4492 16.3491V16.3491Z" fill="white"/>
<path d="M10.4492 26.7078C10.6046 26.7078 10.7537 26.6461 10.8635 26.5362C10.9734 26.4263 11.0352 26.2773 11.0352 26.1219V17.654C11.0352 17.4986 10.9734 17.3496 10.8635 17.2397C10.7537 17.1298 10.6046 17.0681 10.4492 17.0681C10.2938 17.0681 10.1448 17.1298 10.0349 17.2397C9.92501 17.3496 9.86328 17.4986 9.86328 17.654V26.1219C9.86328 26.2773 9.92501 26.4263 10.0349 26.5362C10.1448 26.6461 10.2938 26.7078 10.4492 26.7078Z" fill="white"/>
</svg>
