<svg width="96" height="96" viewBox="0 0 96 96" fill="none" xmlns="http://www.w3.org/2000/svg">
<path d="M95.6444 46.8637C94.8884 45.7637 76.7201 19.9993 47.9998 19.9993C23.3553 19.9993 1.39497 45.6157 0.47096 46.7077C-0.156987 47.4518 -0.156987 48.5438 0.47096 49.2917C1.39497 50.3837 23.3553 76.0002 47.9998 76.0002C72.6442 76.0002 94.6044 50.3837 95.5284 49.2917C96.1085 48.6038 96.1605 47.6078 95.6444 46.8637ZM47.9998 72.0002C28.2435 72.0002 9.4591 53.1599 4.68715 47.9998C9.45123 42.8358 28.2156 23.9995 47.9998 23.9995C71.1161 23.9995 87.4324 42.8118 91.4164 47.8918C86.8162 52.8878 67.924 72.0002 47.9998 72.0002Z" fill="white"/>
<path d="M47.9998 31.9995C39.1757 31.9995 31.9996 39.1756 31.9996 47.9997C31.9996 56.8238 39.1757 63.9999 47.9998 63.9999C56.8239 63.9999 64 56.8238 64 47.9997C64 39.1756 56.8239 31.9995 47.9998 31.9995ZM47.9998 60.0001C41.3838 60.0001 35.9996 54.6159 35.9996 47.9999C35.9996 41.3838 41.3838 35.9997 47.9998 35.9997C54.6159 35.9997 60 41.3838 60 47.9999C60 54.6159 54.6159 60.0001 47.9998 60.0001Z" fill="white"/>
</svg>
